<?xml version="1.0" encoding="UTF-8"?>
<svg width="466px" height="385px" viewBox="0 0 466 385" version="1.1" xmlns="http://www.w3.org/2000/svg" xmlns:xlink="http://www.w3.org/1999/xlink">
    <!-- Generator: sketchtool 52.6 (67491) - http://www.bohemiancoding.com/sketch -->
    <title>5EA75B2B-FB06-4AC4-BCEF-4D6E496DA37A</title>
    <desc>Created with sketchtool.</desc>
    <defs>
        <linearGradient x1="50.0000423%" y1="99.9999999%" x2="50.0000423%" y2="1.23125033e-05%" id="linearGradient-1">
            <stop stop-color="#808080" stop-opacity="0.25" offset="0%"></stop>
            <stop stop-color="#808080" stop-opacity="0.12" offset="54%"></stop>
            <stop stop-color="#808080" stop-opacity="0.1" offset="100%"></stop>
        </linearGradient>
    </defs>
    <g id="Page-1" stroke="none" stroke-width="1" fill="none" fill-rule="evenodd">
        <g id="About-A" transform="translate(-216.000000, -715.000000)">
            <g id="Group-33" transform="translate(216.000000, 715.000000)">
                <circle id="Oval" fill="#FFEFEF" fill-rule="nonzero" cx="192.5" cy="192.5" r="192.5"></circle>
                <g id="Group-29" transform="translate(42.000000, 17.000000)">
                    <path d="M87.012682,247.115819 C93.6463495,246.611813 100.272869,247.835826 106.606305,249.182241 C144.63552,257.102324 183.536833,268.420843 223.124388,264.208799 C244.133384,261.969575 263.869974,255.403106 285.157757,255.043102 C321.228324,254.423896 354.089282,271.603276 389.98114,269.328052 C397.315346,268.860048 406.272227,267.967238 410.711351,271.596076 C415.858162,275.829721 410.261005,283.159398 416.858931,286.550634 C418.824727,287.558644 421.598286,287.990649 423.063698,289.272262 C425.322576,291.259483 423.149478,294.067513 420.204358,295.68033 C402.333487,305.414832 372.310423,290.96428 350.951157,297.530749 C346.211802,298.970764 342.373139,301.37559 337.819641,303.010007 C331.336088,305.328431 323.694504,306.012438 316.26737,306.653245 L202.608627,316.488441 C175.394864,318.842865 147.830832,321.19729 120.516992,319.31807 C93.2031518,317.438851 65.7177515,310.836381 47.8611767,297.969846 C44.0225135,295.205017 40.5841579,292.058584 39.5905374,288.472946 C34.9083834,271.560083 58.7481259,249.275842 87.012682,247.115819 Z" id="Path" fill="#FFDFDF"></path>
                    <path d="M250.540564,197.615682 L250.540564,185.457746 C234.690886,167.705062 254.10953,161 254.10953,161 L254.10953,174.015345 C300.475106,169.697458 294.526829,188.202688 294.526829,188.202688 C299.812121,188.887382 301.497466,192.625438 301.962175,195.647959 C302.112795,196.6352 301.80887,197.63748 301.134685,198.376844 C300.4605,199.116207 299.487731,199.514049 298.486151,199.460037 L285.077744,198.818522 C283.56951,198.741627 282.092366,199.264349 280.971269,200.271692 C279.850172,201.279035 279.176958,202.688484 279.099727,204.189974 C279.094509,204.291062 279.092031,204.392223 279.092291,204.493459 L279.271979,259.201088 C279.323175,267.131902 275.86193,274.682349 269.810502,279.840588 C265.157214,283.745192 258.316697,286.78005 248.365726,286.483966 L143.750415,286.483966 C143.750415,286.483966 112.645886,309.140536 100.953805,280.543787 C100.953805,280.543787 62.1165172,217.422447 114.027621,198.880206 C114.027621,198.880206 133.446265,190.596032 155.238023,208.348716 C155.238023,208.348716 164.74907,217.422447 173.07046,189.806475 C180.00392,166.792137 186.93738,165.700328 189.056453,165.971739 C189.607908,166.045759 190.159363,166.101275 190.717014,166.125949 C195.30834,166.317169 214.175529,169.715963 216.263622,212.29033 C216.263622,212.29033 219.039484,245.03225 236.09121,237.93241 C252.040026,231.282864 250.961901,202.858831 250.776017,199.250311 C250.763789,199.009012 250.728519,198.76942 250.670683,198.534775 C250.589624,198.23488 250.545923,197.926199 250.540564,197.615682 Z" id="Path" fill="#8C8397"></path>
                    <circle id="Oval" fill="#8C8397" cx="258.5" cy="175.5" r="8.5"></circle>
                    <path d="M213.468197,222.471493 C225.574491,209.962752 220.150082,207.941636 217.222134,203.505038 C215.224966,200.473363 194.569065,195.568458 181.655274,192.752451 C181.575141,191.704921 181.43953,189.942606 181.316248,187.822898 C181.316248,187.822898 180.989551,183.854608 181.014207,181.13103 L181.014207,181.063249 L181.840197,181.174164 L181.840197,180.373112 L198.002469,182.542115 C211.779234,184.55707 213.449705,179.313258 213.449705,179.313258 C215.539335,170.033375 198.421628,176.084401 198.421628,176.084401 C195.068357,177.008692 187.178308,174.346733 181.06352,171.912767 C181.13591,170.53918 181.288215,169.170969 181.519664,167.815076 C181.988003,165.759863 182.244127,163.66203 182.284012,161.554544 C182.387362,159.745693 182.006495,157.941996 181.180638,156.329218 C178.098588,150.475374 172.803625,143.623295 167.829196,138.564342 C168.143977,134.971507 169.144136,131.472175 170.775636,128.255414 C176.243094,126.633292 180.010009,121.632502 180.058772,115.931532 C180.059595,114.658802 179.866286,113.393387 179.48551,112.17891 C183.066853,108.913082 182.949735,102.17808 179.658105,97.8523974 C179.306575,97.39503 178.914602,96.9701983 178.486926,96.5830376 C176.222851,94.4109127 173.239594,93.1456652 170.103749,93.0275976 C166.596376,92.8242535 163.107495,93.7670305 159.877506,95.1164956 C156.074256,96.7124383 152.264842,98.943061 148.128731,98.6164781 C145.15147,98.3823243 142.303655,96.8171913 139.344887,97.1869078 C135.498488,97.6675392 132.921894,101.179846 131.097321,104.488808 C129.272747,107.79777 127.39886,111.501097 123.866831,113.023096 C120.78478,114.341752 117.240422,113.63929 113.874823,113.830311 C109.171615,114.08295 104.406765,116.375192 102.163032,120.380454 C100.1597,123.972865 100.769945,128.920904 103.796519,131.63832 C104.25747,132.116018 104.779817,132.530434 105.349872,132.870708 C105.967467,133.206597 106.560683,133.585463 107.125133,134.004505 C107.439054,134.33625 107.605747,134.780608 107.587441,135.236894 C107.500924,135.782727 107.290021,136.301366 106.971031,136.752731 C105.796969,138.838462 105.542429,141.318019 106.268262,143.598648 C106.497756,144.419028 106.960236,145.155312 107.599707,145.718355 C107.780467,145.923606 107.987758,146.103887 108.216117,146.254444 C110.35506,147.720986 113.696003,145.958671 115.822618,147.437537 L115.982884,147.560776 C116.839694,148.552848 117.10475,150.025552 117.696504,151.208645 C118.088267,151.985919 118.626121,152.680491 119.280678,153.254409 C121.063581,154.970596 123.420841,155.963241 125.894758,156.039607 C129.050777,156.205979 132.145156,155.250878 135.140909,154.221834 C139.067441,152.872369 143.450117,150.851252 144.473357,146.944582 C145.089767,144.566072 144.28227,141.971895 145.03429,139.630358 C145.412701,138.511257 146.080453,137.512105 146.969818,136.734245 C146.184946,138.684134 145.650572,140.72564 145.37948,142.809919 C145.13635,144.495335 145.023009,146.196922 145.040455,147.899682 C144.991178,152.334621 145.762314,156.740467 147.315008,160.895216 C148.930002,165.270194 150.828545,171.690937 150.914842,177.871364 C150.92464,180.412318 150.490753,182.935488 149.632709,185.327312 C147.006803,192.247172 146.550659,195.340466 146.667777,196.726903 C146.562987,198.532352 147.123921,198.649429 147.123921,198.649429 L147.284187,198.587809 C146.94006,201.062885 147.626278,203.570754 149.182699,205.526155 C165.881248,216.420467 204.702754,212.791083 204.702754,212.791083 C196.769556,214.023472 187.59121,233.371966 187.59121,233.371966 C185.941575,237.651932 183.301097,241.480339 179.886084,244.543566 L179.886084,244.469622 C175.922568,243.113995 170.418026,246.706407 166.355884,248.659742 L166.023022,248.813791 C165.229766,249.162521 164.626439,249.837549 164.368769,250.66464 C164.111099,251.491732 164.224335,252.38984 164.679248,253.127149 L175.922568,271.304875 C182.992791,278.631423 187.634359,279.894621 189.249353,278.502023 C190.315743,277.596217 190.093835,275.550453 188.44802,273.31983 C184.447519,267.909646 187.917908,253.435246 188.213784,252.221344 C191.653476,247.766255 203.297431,232.983764 213.468197,222.471493 Z" id="Path" fill="url(#linearGradient-1)"></path>
                    <path d="M173,126.850556 C173,126.850556 166.936439,135.425278 168.150416,144 L154,133.085056 C154,133.085056 159.254243,132.695019 160.46822,121 L173,126.850556 Z" id="Path" fill="#F9D5C6"></path>
                    <path d="M170.866091,191.107128 C170.866091,191.107128 211.646661,199.438503 214.42026,203.805806 C217.193859,208.173109 222.338637,210.152043 210.854205,222.453694 C199.369772,234.755344 185.910388,253 185.910388,253 L176.407097,246.256735 C180.934802,242.977924 184.383699,238.420518 186.312808,233.167234 C186.312808,233.167234 195.023642,214.122319 202.54579,212.931236 C202.54579,212.931236 165.721313,216.504484 149.884558,205.790944 C149.884558,205.790944 145.922274,201.448455 149.48833,194.283349 C153.054386,187.118242 170.866091,191.107128 170.866091,191.107128 Z" id="Path" fill="#353535"></path>
                    <path d="M158.127389,134.577708 C158.127389,134.577708 148.506512,130.126537 146.307979,145.935013 C145.555843,151.660153 146.186258,157.484541 148.145193,162.908976 C150.368222,169.213769 153.166911,179.845743 150.31923,187.706585 C146.032397,199.603238 147.967596,200 147.967596,200 L153.7242,197.799212 C161.489753,194.829223 169.909419,194.063929 178.073408,195.586026 L180.474034,196.032383 C180.474034,196.032383 178.906279,177.477572 180.278065,169.666325 C180.927214,165.946684 181.643727,162.537012 179.959615,159.183136 C174.778671,148.910726 162.953144,135.495207 158.127389,134.577708 Z" id="Path" fill="#000000" opacity="0.1"></path>
                    <path d="M158.127389,133.577708 C158.127389,133.577708 148.506512,129.126537 146.307979,144.935013 C145.555843,150.660153 146.186258,156.484541 148.145193,161.908976 C150.368222,168.213769 153.166911,178.845743 150.31923,186.706585 C146.032397,198.603238 147.967596,199 147.967596,199 L153.7242,196.799212 C161.489752,193.829219 169.909419,193.063926 178.073408,194.586026 L180.474034,195.032383 C180.474034,195.032383 178.906279,176.477572 180.278065,168.666325 C180.927214,164.946684 181.643727,161.537012 179.959615,158.183136 C174.778671,147.879735 162.953144,134.48902 158.127389,133.577708 Z" id="Path" fill="#FF5A58"></path>
                    <path d="M151.919573,144.729956 C154.583429,139.914898 161.434225,139.753151 164.529724,144.294485 C165.786922,146.254729 166.671442,148.433948 167.138083,150.720784 C169.9006,162.658894 172.262306,170.217416 172.262306,170.217416 C172.262306,170.217416 178.373142,172.407209 181,174.105544 C180.741014,177.975009 180.63002,182 180.63002,182 L167.532728,180.133698 L153.732475,155.467411 C153.732475,155.467411 149.076869,149.868494 151.919573,144.729956 Z" id="Path" fill="#000000" opacity="0.1"></path>
                    <path d="M151.924774,144.678638 C154.603697,139.929827 161.493241,139.770306 164.606248,144.249159 C165.870559,146.182432 166.760081,148.331669 167.22936,150.587042 C170.007502,162.360903 172.382565,169.815432 172.382565,169.815432 C172.382565,169.815432 191.023402,178.840627 196.567284,177.26996 C196.567284,177.26996 212.826856,171.386098 210.830066,180.411293 C210.830066,180.411293 209.242557,185.509822 196.158004,183.552625 L167.632439,179.62596 L153.74793,155.299041 C153.74793,155.299041 149.065992,149.746478 151.924774,144.678638 Z" id="Path" fill="#F9D5C6"></path>
                    <path d="M158,126.218456 C158.733598,124.435656 159.448701,125.320778 159.775429,122 L172,128.020088 C171.224147,129.236819 170.534025,130.508056 169.93483,131.824231 C168.701893,132.219711 167.234698,131.824231 165.890797,131.824231 C162.851607,131.843057 160.176152,128.03892 158,126.218456 Z" id="Path" fill="#000000" opacity="0.1"></path>
                    <circle id="Oval" fill="#F9D5C6" cx="166.5" cy="118.5" r="12.5"></circle>
                    <path d="M172.918232,117.024511 C170.682755,116.729631 168.385008,115.586972 166.27407,116.379462 C163.851784,117.288674 163.017372,120.262045 163.029826,122.817669 C163.04228,125.373294 163.540436,128.057928 162.4694,130.386249 C161.062108,133.457913 157.487835,134.815588 154.287179,135.982821 C151.086524,137.150053 147.549613,138.790322 146.534619,142.003282 C145.812292,144.2886 146.590661,146.807364 145.999101,149.123399 C145.021468,152.932262 140.843181,154.891984 137.094553,156.212799 C134.255061,157.208018 131.303484,158.141804 128.295864,157.982077 C125.288244,157.822351 122.168539,156.354096 120.873332,153.681748 C120.194594,152.274926 119.970424,150.524078 118.687671,149.614865 C116.657683,148.171183 113.469481,149.891315 111.433267,148.459919 C110.728115,147.900822 110.225612,147.131325 110.001067,146.266751 C109.302854,144.049242 109.543161,141.647423 110.667351,139.607384 C110.98582,139.166726 111.198736,138.660491 111.290047,138.126842 C111.352316,136.836743 109.864074,136.124117 108.755676,135.442208 C104.938551,133.1016 103.9796,127.554175 106.115446,123.653162 C108.251292,119.752149 112.79697,117.509834 117.280379,117.276388 C120.487261,117.098231 123.874725,117.773997 126.813849,116.490042 C130.195086,115.0095 131.969768,111.40951 133.707089,108.184263 C135.44441,104.959015 137.904058,101.543325 141.577962,101.076432 C144.405,100.713976 147.119953,102.243665 149.959445,102.470968 C153.901108,102.784277 157.53765,100.627969 161.167966,99.0614208 C164.244082,97.7467486 167.575504,96.8252495 170.919379,97.0279793 C174.263255,97.2307091 177.644492,98.6682478 179.637118,101.328309 C184.126753,107.3672 182.395641,118.271607 172.918232,117.024511 Z" id="Path" fill="#000000" opacity="0.1"></path>
                    <path d="M171.923738,116.028637 C169.688694,115.733787 167.391393,114.591243 165.280864,115.383653 C162.859048,116.292774 162.024798,119.265845 162.037249,121.821212 C162.049701,124.376579 162.547761,127.060943 161.476932,129.38903 C160.069913,132.460384 156.496333,133.817923 153.296298,134.985038 C150.096263,136.152153 146.560038,137.792256 145.545241,141.004893 C144.823054,143.289981 145.601273,145.808491 145.009827,148.124293 C144.032384,151.932772 139.854907,153.892297 136.107006,155.212979 C133.268065,156.208098 130.31706,157.14179 127.310024,156.982079 C124.302987,156.822369 121.183887,155.354261 119.888931,152.682183 C119.210325,151.275502 118.986198,149.52483 117.703693,148.615709 C115.674099,147.172173 112.486516,148.892131 110.450696,147.46088 C109.745679,146.901841 109.243273,146.132421 109.018774,145.267933 C108.313238,143.051238 108.546787,140.647191 109.666252,138.603094 C109.98466,138.16248 110.197534,137.656296 110.288827,137.122701 C110.351084,135.832732 108.86313,135.120177 107.754947,134.438337 C103.938563,132.097965 102.979798,126.551098 105.11523,122.650478 C107.250662,118.749858 111.795458,116.507769 116.277997,116.274346 C119.484258,116.096207 122.871065,116.771905 125.809618,115.488079 C129.1902,114.007686 130.964538,110.408059 132.701522,107.183136 C134.438506,103.958214 136.897676,100.542868 140.570868,100.076022 C143.397358,99.7136019 146.111784,101.243137 148.950726,101.470417 C152.891624,101.783695 156.527462,99.627604 160.157073,98.0612132 C163.232593,96.7466734 166.563368,95.8252671 169.906595,96.0279765 C173.249822,96.2306859 176.630404,97.6680798 178.622643,100.327873 C183.130085,106.372299 181.405541,117.275607 171.923738,116.028637 Z" id="Path" fill="#2F302F"></path>
                    <path d="M170,148.740937 C170,148.740937 153.923973,146.796396 153.139178,158.06866 C152.354384,169.340924 150,144.469023 150,144.469023 L157.449418,139 L166.106683,141.746665 L170,148.740937 Z" id="Path" fill="#000000" opacity="0.1"></path>
                    <path d="M169,147.740937 C169,147.740937 152.923973,145.796396 152.139178,157.06866 C151.354384,168.340924 149,143.469023 149,143.469023 L156.449418,138 L165.076027,140.722358 L169,147.740937 Z" id="Path" fill="#FF5A58"></path>
                    <path d="M164.418081,252.721697 L174.919965,270.485598 C181.536336,277.636738 185.873938,278.874791 187.389044,277.513549 C188.384859,276.626586 188.183253,274.630919 186.6376,272.456627 C182.727649,266.913107 186.442103,251.773139 186.442103,251.773139 C179.4103,250.196316 178.62831,244.289387 178.62831,244.289387 C174.96273,242.971262 169.788155,246.475998 165.982062,248.366954 L165.670487,248.514781 C164.965389,248.857129 164.42406,249.467854 164.165586,250.212605 C163.907113,250.957355 163.952668,251.775124 164.29223,252.486011 C164.330637,252.566421 164.372587,252.644983 164.418081,252.721697 Z" id="Path" fill="#FF5A58"></path>
                    <path d="M187,252 C187,252 179,251.578601 179,244 C179,244 180.200938,250.735796 187,252 Z" id="Path" fill="#000000" opacity="0.1"></path>
                    <path d="M164.423548,252.408669 L175.20225,270.392545 C181.993021,277.63224 186.444957,278.885624 188,277.507525 C184.275422,275.549502 174.035968,268.546766 166.053835,248 L165.734048,248.149658 C165.007891,248.491094 164.447865,249.105421 164.177169,249.857492 C163.906473,250.609562 163.947281,251.437771 164.290617,252.159919 C164.331006,252.244841 164.375317,252.327758 164.423548,252.408669 Z" id="Path" fill="#000000" opacity="0.1"></path>
                    <path d="M268.150909,21.3333331 L259.805272,21.3333331 C263.034029,21.3333331 265.651454,18.7962801 265.651454,15.6666666 C265.651454,12.537053 263.034029,10 259.805272,10 L192.192909,10 C188.964152,10 186.346727,12.537053 186.346727,15.6666666 C186.346727,18.7962801 188.964152,21.3333331 192.192909,21.3333331 L200.538545,21.3333331 C197.309788,21.3333331 194.692364,23.8703861 194.692364,26.9999997 C194.692364,30.1296132 197.309788,32.6666662 200.538545,32.6666662 L188.846182,32.6666662 C185.617425,32.6666662 183,35.2037193 183,38.3333328 C183,41.4629463 185.617425,43.9999993 188.846182,43.9999993 L256.458545,43.9999993 C259.687302,44.0015112 262.305991,41.4656838 262.307551,38.3360703 C262.309111,35.2064568 259.692951,32.6681781 256.464193,32.6666662 L268.150993,32.6666662 C271.37975,32.6681781 273.99844,30.1323507 273.999999,27.0027372 C274.001559,23.8731237 271.385399,21.334845 268.156642,21.3333331 L268.150909,21.3333331 Z" id="Path" fill="#FF5A59" opacity="0.1"></path>
                    <path d="M150.048516,127.333333 L137.300769,127.333333 C142.232613,127.333333 146.230663,123.453134 146.230663,118.666666 C146.230663,113.880199 142.232613,110 137.300769,110 L34.0461741,110 C29.1143299,110 25.1162802,113.880199 25.1162802,118.666666 C25.1162802,123.453134 29.1143299,127.333333 34.0461741,127.333333 L46.7939212,127.333333 C41.8620774,127.333334 37.8640284,131.213532 37.8640284,135.999999 C37.8640284,140.786467 41.8620774,144.666665 46.7939212,144.666666 L28.9341334,144.666666 C24.0022892,144.664394 20.0023419,148.542751 20.000001,153.329219 C19.9976602,158.115687 23.9938122,161.997727 28.9256565,161.999999 L132.210319,161.999999 C137.142164,162.002277 141.142116,158.123924 141.144462,153.337456 C141.146809,148.550989 137.150662,144.668944 132.218818,144.666666 L150.070107,144.666666 C155.001951,144.666665 159,140.786467 159,135.999999 C159,131.213532 155.001951,127.333334 150.070107,127.333333 L150.048516,127.333333 Z" id="Path" fill="#FF5A59" opacity="0.1"></path>
                    <path d="M317.715623,112.333333 L313.02257,112.333333 C314.832093,112.334178 316.29971,110.917098 316.300585,109.168197 C316.301459,107.419295 314.835259,106.000845 313.025736,106 L275.153693,106 C273.34417,105.999155 271.876552,107.416235 271.875678,109.165137 C271.874804,110.914039 273.341004,112.332489 275.150527,112.333333 L279.83087,112.333333 C278.021347,112.332489 276.55373,113.749569 276.552856,115.49847 C276.551981,117.247372 278.018181,118.665822 279.827704,118.666667 L273.278015,118.666667 C271.468492,118.665822 270.000875,120.082902 270,121.831803 C269.999126,123.580705 271.465326,124.999155 273.274849,125 L311.170658,125 C312.980181,125.000845 314.447798,123.583765 314.448673,121.834863 C314.449547,120.085961 312.983347,118.667511 311.173824,118.666667 L317.723569,118.666667 C319.533092,118.666666 321,117.248901 321,115.5 C321,113.751099 319.533092,112.333334 317.723569,112.333333 L317.715623,112.333333 Z" id="Path" fill="#FF5A59" opacity="0.321196057"></path>
                    <circle id="Oval" fill="#FFE09C" cx="33" cy="33" r="33"></circle>
                    <path d="M127,244 C127,244 138.238484,258.375416 142.552813,270.091473 C146.867142,281.807529 144.163662,285 144.163662,285" id="Path" fill="#000000" opacity="0.05"></path>
                </g>
            </g>
        </g>
    </g>
</svg>